:SAMPLES-PER-SECOND 30
:FULLY-SPECIFIED
:DEGREES
1313
root  35.1576 39.9075 10.9154 -3.36499 80.2 2.44141
RightUpLeg  -3.65412 -13.3299 -8.58165
RightLeg  16.6545 -1.86339 -0.200448
RightFoot  -3.88124 -0.208041 2.78279
RightToes  0.000481921 0.542163 -0.142578
Spine  11.0534 -1.716 2.83372
Spine1  12.1363 -1.26741 -0.846363
HEad  19.907 10.0384 -1.31009
LeftShoulder1  6.65262 -13.0292 -34.1887
LeftArm  -6.96603 -17.9384 -44.5292
LeftForeArm  -164.914 -49.8462 -169.739
LeftHand  -0.25398 0.0180481 5.50724
RightShoulder  5.03587 10.9258 28.9106
RightArm  8.52563 21.5599 61.9868
RightForeArm  174.998 64.7899 159.671
RightHand  -1.16771 5.74977 -12.5533
LeftUpLeg  3.5016 20.9002 12.9002
LeftLeg  13.4262 13.3664 1.39735
LeftFoot  -2.50652 0.647929 -8.1835
LeftToes  1.06244e-005 4.65869e-005 -8.65518e-006
1314
root  35.1839 39.9621 11.0874 -4.06665 79.7942 1.06445
RightUpLeg  -3.90236 -13.5384 -8.08242
RightLeg  15.8571 -1.60782 0.272267
RightFoot  -3.69232 -0.204738 2.68545
RightToes  0.000481921 0.542163 -0.142578
Spine  10.9649 -1.9643 3.063
Spine1  11.2306 -1.59707 -0.610321
HEad  19.5593 10.1933 -1.65753
LeftShoulder1  6.62192 -13.2542 -33.471
LeftArm  -8.57425 -20.8655 -43.1599
LeftForeArm  -164.764 -51.4032 -169.152
LeftHand  -0.25398 0.0180481 5.50724
RightShoulder  4.77632 10.7215 27.5515
RightArm  7.48686 24.0569 61.3417
RightForeArm  174.108 65.7223 158.725
RightHand  -1.18389 5.80651 -12.6158
LeftUpLeg  3.44986 19.8261 13.2675
LeftLeg  12.4738 14.8587 0.914446
LeftFoot  -2.09592 0.704482 -8.5483
LeftToes  1.06244e-005 4.65869e-005 -8.65518e-006
1315
root  35.125 39.9075 11.2846 -5.03784 79.8239 -0.391846
RightUpLeg  -4.79294 -14.3287 -7.39828
RightLeg  16.6309 -1.15117 0.317085
RightFoot  -4.17117 -0.196604 2.68373
RightToes  0.000481921 0.542163 -0.142578
Spine  11.4899 -1.9267 2.57634
Spine1  10.4221 -1.9805 0.805828
HEad  18.5895 10.0975 -2.37459
LeftShoulder1  6.59379 -13.4583 -32.8328
LeftArm  -10.6533 -24.534 -42.4861
LeftForeArm  -165.05 -53.962 -168.062
LeftHand  -0.25398 0.0180481 5.50724
RightShoulder  4.61169 10.5635 26.7325
RightArm  6.23783 26.7415 60.6455
RightForeArm  168.505 66.2682 157.578
RightHand  -1.32438 5.72167 -14.1658
LeftUpLeg  2.53909 21.7698 13.8618
LeftLeg  13.2302 12.7795 1.13737
LeftFoot  -2.29025 0.728448 -9.01951
LeftToes  1.06244e-005 4.65869e-005 -8.65518e-006
1316
root  34.9701 39.7282 11.4955 -7.6604 80.9672 -3.05469
RightUpLeg  -5.9694 -15.7568 -6.51493
RightLeg  19.0142 -1.05081 -0.228348
RightFoot  -5.29096 -0.16947 2.51961
RightToes  0.000481921 0.542163 -0.142578
Spine  12.95 -2.02272 1.67042
Spine1  9.56578 -2.7295 3.14707
HEad  17.3129 9.87456 -3.17342
LeftShoulder1  6.53301 -13.6453 -32.0545
LeftArm  -12.8966 -28.3089 -42.4528
LeftForeArm  -166.455 -57.1781 -166.427
LeftHand  -0.25398 0.0180481 5.50724
RightShoulder  4.59979 10.6346 26.4725
RightArm  4.78386 28.8907 59.8504
RightForeArm  164.162 66.0768 157.277
RightHand  -1.35977 5.25349 -15.1243
LeftUpLeg  0.444433 24.6114 14.2848
LeftLeg  15.9887 8.45466 2.27485
LeftFoot  -2.96685 0.70926 -9.43118
LeftToes  1.06244e-005 4.65869e-005 -8.65518e-006
1317
root  34.7854 39.4571 11.7024 -14.7512 83.4525 -9.56006
RightUpLeg  -6.64074 -17.5411 -5.81727
RightLeg  22.2331 -1.83459 -1.0706
RightFoot  -6.7857 -0.134045 2.20854
RightToes  0.000481921 0.542163 -0.142578
Spine  15.14 -2.50657 1.05448
Spine1  8.67146 -3.81178 5.52094
HEad  16.2482 9.3101 -3.47783
LeftShoulder1  6.46798 -13.8142 -31.3034
LeftArm  -14.6745 -31.7918 -42.8465
LeftForeArm  -168.056 -60.1024 -164.678
LeftHand  -0.25398 0.0180481 5.50724
RightShoulder  4.73955 10.9361 26.7696
RightArm  3.00795 29.8121 58.9896
RightForeArm  163.179 65.4493 157.789
RightHand  -1.37888 5.10746 -15.5285
LeftUpLeg  -2.13628 22.6349 14.495
LeftLeg  19.8085 7.2364 3.30242
LeftFoot  -3.87931 0.661426 -9.77075
LeftToes  1.06244e-005 4.65869e-005 -8.65518e-006
1318
root  34.675 39.1959 11.9271 -38.2119 86.3826 -32.1292
RightUpLeg  -6.47776 -19.3433 -5.54275
RightLeg  25.0955 -3.25327 -1.89241
RightFoot  -8.24785 -0.109394 1.98332
RightToes  0.000481921 0.542163 -0.142578
Spine  16.9924 -3.12429 0.732696
Spine1  8.12336 -4.89691 7.4427
HEad  15.7668 8.69895 -3.54959
LeftShoulder1  6.48166 -13.9704 -31.0448
LeftArm  -15.4825 -34.1655 -43.4914
LeftForeArm  -168.053 -61.6203 -163.716
LeftHand  -0.25398 0.0180481 5.50724
RightShoulder  4.89027 11.0252 27.6372
RightArm  1.45024 29.5546 58.3687
RightForeArm  161.625 65.0686 157.985
RightHand  -1.51168 5.46608 -16.4347
LeftUpLeg  -4.03813 18.54 14.9156
LeftLeg  22.8847 7.33949 3.7094
LeftFoot  -4.67182 0.617022 -10.0897
LeftToes  1.06244e-005 4.65869e-005 -8.65518e-006
1319
root  34.6902 39.0516 12.2163 -96.6858 87.7652 -90.0212
RightUpLeg  -5.85745 -21.2268 -5.44243
RightLeg  26.7357 -4.51294 -2.70171
RightFoot  -9.3632 -0.0964043 1.91627
RightToes  0.000481921 0.542163 -0.142578
Spine  17.5456 -3.46453 -0.0517879
Spine1  8.16046 -5.83404 9.35234
HEad  16.0104 8.79759 -4.221
LeftShoulder1  6.64089 -14.0765 -31.7306
LeftArm  -15.4293 -34.3469 -43.9456
LeftForeArm  -166.634 -61.3635 -163.993
LeftHand  -0.25398 0.0180481 5.50724
RightShoulder  4.99454 10.7425 29.0768
RightArm  0.814636 28.7301 57.8453
RightForeArm  158.337 65.2424 157.459
RightHand  -1.65499 5.64773 -17.6646
LeftUpLeg  -5.05088 16.0894 15.3466
LeftLeg  23.937 6.22047 3.34398
LeftFoot  -4.90093 0.612096 -10.3356
LeftToes  1.06244e-005 4.65869e-005 -8.65518e-006
